<svg id="Ebene_1" data-name="Ebene 1" xmlns="http://www.w3.org/2000/svg" viewBox="0 0 686.45 264.85"><path d="M329.15,21.48l.37-.83a13.55,13.55,0,0,0,.82-1.72c.1-.41-.1-.63-.61-.67H299.6a5.17,5.17,0,0,0-2.27.33A4.8,4.8,0,0,0,296,20.76l-6.33,15.59a9.34,9.34,0,0,0-.4,1.16c-.21.82.43,1.22,1.91,1.22a6.82,6.82,0,0,0,4.07-.94q1.23-.95,3.86-5.49A28,28,0,0,1,303,26.67a4.11,4.11,0,0,1,2.82-1h2.7L276,91.67l-.75,1.44a4.24,4.24,0,0,0-.18.5c-.08.33.12.5.6.5h30.81a4.72,4.72,0,0,0,2.14-.25,23.8,23.8,0,0,0,1.59-3.58l4.82-12c.79-2,1.22-3.11,1.27-3.33.2-.81-.27-1.22-1.41-1.22-2.63,0-4.32.42-5.09,1.25a24.16,24.16,0,0,0-3,4.74c-1.67,3.15-2.95,5.13-3.86,5.94a6.09,6.09,0,0,1-4.18,1.22h-2.11ZM256.26,48.11l4.58-18.37c.86-3.47,2.55-5.2,5.07-5.21s3.28,1.74,2.42,5.21l-4.58,18.37Zm23.18,6.94,1.29-5.16q3.87-15.54.26-24t-13.05-8.44q-11,0-20.25,10t-14,29.16q-4.77,19.14.18,28.66t15.44,9.51a23.47,23.47,0,0,0,16.36-6.65A30.54,30.54,0,0,0,275,73c.41-1.63.39-2.64,0-3s-1.65-.61-3.65-.61c-2.29,0-3.69.22-4.19.66s-1,1.78-1.63,4a22.62,22.62,0,0,1-5.14,9.79,10.32,10.32,0,0,1-7.63,3.58,3.89,3.89,0,0,1-3.83-2.55q-1.11-2.55,0-7.05l5.66-22.69ZM211.92,6.5c.33-1.34-.19-2-1.55-2H191.72A1.51,1.51,0,0,0,190,5.66L189,9.6a1.09,1.09,0,0,0,.57,1.42,1.23,1.23,0,0,0,.33.08q2.28.45,1.35,4.16l-17,68.09a5.11,5.11,0,0,1-2.41,3.22A5.48,5.48,0,0,0,170.2,88a12.17,12.17,0,0,0-1,3,4.18,4.18,0,0,0-.18,2.47c.21.35.74.53,1.59.53H190.7c1.29,0,2.06-.18,2.3-.53a23.75,23.75,0,0,0,1.3-4.36,3.16,3.16,0,0,0-.86-2.55,3.6,3.6,0,0,1-.68-3.27l12.77-51.22q3.63-2.55,5.74-2.55a2.18,2.18,0,0,1,2,1.19,3.52,3.52,0,0,1,.31,2.64L200.71,85.07a11.14,11.14,0,0,0,0,6.32c.59,1.78,1.5,2.67,2.72,2.67h14.15a2.31,2.31,0,0,0,1.95-.73A10.41,10.41,0,0,0,220.74,90a3.52,3.52,0,0,0-.75-3.66c-.63-.59-.77-1.57-.43-2.94l13.2-52.94q1.45-5.82-1.21-9.38a8.81,8.81,0,0,0-7.44-3.55q-6.44,0-16.89,7.88ZM178.65,4.39c-1.07,1-1.83,1.55-2.27,1.55a2.62,2.62,0,0,1-1.47-.78A9.16,9.16,0,0,0,168.51,3q-6.6,0-12.85,5.17T143.85,22.78q-5.55,9.46-9.49,25.28-4.17,16.75-3.05,27.49t5.25,15.12q4.11,4.38,11,4.38a19.76,19.76,0,0,0,13.18-5.24,25,25,0,0,0,8.06-13.18c.41-1.66.39-2.78-.08-3.35s-1.48-.86-3-.86c-2.07,0-3.54.38-4.4,1.16a9.22,9.22,0,0,0-2.2,4.16q-3.15,10.38-7.8,10.38c-2.45,0-3.15-2.07-2.12-6.22l15.57-62.42q2.16-8.71,5.66-8.71c2.82,0,4,4,3.48,12.1q-.3,4.77.32,6c.42.85,1.44,1.28,3.07,1.28a4.23,4.23,0,0,0,2.86-.78,5.3,5.3,0,0,0,1.34-2.72q.12-.49.21-1l3.18-17.87c.39-2.18.49-3.52.28-4A1.27,1.27,0,0,0,183.83,3h-2.89a3.82,3.82,0,0,0-2.29,1.39" style="fill:#fe0"/><path d="M325.15,18.48l.37-.83a13.55,13.55,0,0,0,.82-1.72c.1-.41-.1-.63-.61-.67H295.6a5.17,5.17,0,0,0-2.27.33A4.8,4.8,0,0,0,292,17.76l-6.33,15.59a9.34,9.34,0,0,0-.4,1.16c-.21.82.43,1.22,1.91,1.22a6.82,6.82,0,0,0,4.07-.94q1.23-.95,3.86-5.49A28,28,0,0,1,299,23.67a4.11,4.11,0,0,1,2.82-1h2.7L272,88.67l-.75,1.44a4.24,4.24,0,0,0-.18.5c-.08.33.12.5.6.5h30.81a4.72,4.72,0,0,0,2.14-.25,23.8,23.8,0,0,0,1.59-3.58l4.82-12c.79-2,1.22-3.11,1.27-3.33.2-.81-.27-1.22-1.41-1.22-2.63,0-4.32.42-5.09,1.25a24.16,24.16,0,0,0-3,4.74c-1.67,3.15-2.95,5.13-3.86,5.94a6.09,6.09,0,0,1-4.18,1.22h-2.11ZM252.26,45.11l4.58-18.37c.86-3.47,2.55-5.2,5.07-5.21s3.28,1.74,2.42,5.21l-4.58,18.37Zm23.18,6.94,1.29-5.16q3.87-15.54.26-24t-13.05-8.44q-11,0-20.25,10t-14,29.16q-4.77,19.14.18,28.66t15.44,9.51a23.47,23.47,0,0,0,16.36-6.65A30.54,30.54,0,0,0,271,70c.41-1.63.39-2.64,0-3s-1.65-.61-3.65-.61c-2.29,0-3.69.22-4.19.66s-1,1.78-1.63,4a22.62,22.62,0,0,1-5.14,9.79,10.32,10.32,0,0,1-7.63,3.58,3.89,3.89,0,0,1-3.83-2.55q-1.11-2.55,0-7.05l5.66-22.69ZM207.92,3.5c.33-1.34-.19-2-1.55-2H187.72A1.51,1.51,0,0,0,186,2.66L185,6.6A1.09,1.09,0,0,0,185.57,8a1.23,1.23,0,0,0,.33.08q2.28.45,1.35,4.16l-17,68.09a5.11,5.11,0,0,1-2.41,3.22A5.48,5.48,0,0,0,166.2,85a12.17,12.17,0,0,0-1,3,4.18,4.18,0,0,0-.18,2.47c.21.35.74.53,1.59.53H186.7c1.29,0,2.06-.18,2.3-.53a23.75,23.75,0,0,0,1.3-4.36,3.16,3.16,0,0,0-.86-2.55,3.6,3.6,0,0,1-.68-3.27l12.77-51.22q3.63-2.55,5.74-2.55a2.18,2.18,0,0,1,2,1.19,3.52,3.52,0,0,1,.31,2.64L196.71,82.07a11.14,11.14,0,0,0,0,6.32c.59,1.78,1.5,2.67,2.72,2.67h14.15a2.31,2.31,0,0,0,1.95-.73A10.41,10.41,0,0,0,216.74,87a3.52,3.52,0,0,0-.75-3.66c-.63-.59-.77-1.57-.43-2.94l13.2-52.94q1.45-5.82-1.21-9.38a8.81,8.81,0,0,0-7.44-3.55q-6.44,0-16.89,7.88ZM174.65,1.39c-1.07,1-1.83,1.55-2.27,1.55a2.62,2.62,0,0,1-1.47-.78A9.16,9.16,0,0,0,164.51,0q-6.6,0-12.85,5.17T139.85,19.78q-5.55,9.46-9.49,25.28-4.17,16.75-3.05,27.49t5.25,15.12q4.11,4.38,11,4.38a19.76,19.76,0,0,0,13.18-5.24,25,25,0,0,0,8.06-13.18c.41-1.66.39-2.78-.08-3.35s-1.48-.86-3-.86c-2.07,0-3.54.38-4.4,1.16a9.22,9.22,0,0,0-2.2,4.16q-3.15,10.38-7.8,10.38c-2.45,0-3.15-2.07-2.12-6.22l15.57-62.42q2.16-8.71,5.66-8.71c2.82,0,4,4,3.48,12.1q-.3,4.77.32,6c.42.85,1.44,1.28,3.07,1.28a4.23,4.23,0,0,0,2.86-.78,5.3,5.3,0,0,0,1.34-2.72q.12-.49.21-1l3.18-17.87c.39-2.18.49-3.52.28-4A1.27,1.27,0,0,0,179.83,0h-2.89a3.82,3.82,0,0,0-2.29,1.39" style="fill:#fa125e"/><path d="M642.54,134.72a29.44,29.44,0,0,1,.68-5.37,6.27,6.27,0,0,1,4-4.71,4.68,4.68,0,0,0,2.7-2.16,34.22,34.22,0,0,0,1.88-6c.36-1.45.31-2.37-.16-2.78s-1.57-.61-3.33-.61H615.14a5.5,5.5,0,0,0-3.08.65c-.62.44-1.14,1.54-1.58,3.3l-1.31,5.28c-.44,1.76-.17,2.92.82,3.48a4.41,4.41,0,0,1,1.9,3.54,69,69,0,0,1,0,9.75l-4.2,97.69a88.62,88.62,0,0,1-.74,10.55q-1.25,5-6,5c-1.7,0-2.67-1.25-2.92-3.77q-.81-7.73-7.41-7.72a13.31,13.31,0,0,0-8.12,2.73,12.71,12.71,0,0,0-4.85,7.35q-1.65,6.29,1.85,10.18t11.79,3.9a37.63,37.63,0,0,0,25.94-9.75,44,44,0,0,0,9.06-11q3.56-6.17,13.11-27.84l36.4-82.9q2.85-6.51,5.93-8.29a17.62,17.62,0,0,0,2.57-1.79,10.71,10.71,0,0,0,1.15-3.3q1.2-4.8.49-5.93c-.47-.76-1.62-1.13-3.44-1.13H666.3q-2.64,0-3.39,3a36.82,36.82,0,0,0-1.23,6.41,3.7,3.7,0,0,0,1.26,2.82q2.71,2.64,2.11,5.08a26,26,0,0,1-1.58,3.68c-.16.37-.42.94-.79,1.69l-21.83,49.61ZM554.87,116a3.67,3.67,0,0,0,.12-2.36c-.22-.38-1-.56-2.31-.56H522q-2.64,0-3.37,2.92l-1.24,5c-.36,1.44,0,2.45,1,3a3.86,3.86,0,0,1,2,4.81l-23,92.13c-.8,3.21-1.53,5.28-2.21,6.22a12.23,12.23,0,0,1-3.67,3,5.8,5.8,0,0,0-2.66,3.87L488,237.5c-.47,1.89-.54,3.06-.22,3.54s1.3.7,2.93.7h33.45c3.07,0,4.88-1.07,5.41-3.2l1.2-4.81c.5-2,.19-3.39-.95-4.14a4.52,4.52,0,0,1-2-5.28l21.92-87.89c3.76-2.76,7-4.15,9.6-4.15q6,0,4.2,7.35L541.2,229.21q-1.92,7.72,2.53,12.53H570.2a4.67,4.67,0,0,0,3.18-.85q.92-.84,2-5.18c.91-3.64.76-5.9-.47-6.78-1.33-1.07-1.74-2.61-1.21-4.62l22.5-90.25q2.4-9.6-1.22-16t-13.46-6.36q-14.41,0-29.15,14.13ZM451.23,210.86q-3,12-10.25,12c-2.77,0-4.38-1.33-4.85-4s.56-9,3.08-19.14q5.15-20.59,8.68-26.48t15.35-10.58Zm-5.65-52.5q-19.54,7-27.72,15.2t-13.48,29.5q-5.31,21.27-1.08,30.64t16.17,9.36a28.72,28.72,0,0,0,11-2.35q5.67-2.36,16-10.84.79,7.83,5,10.51T463,243.06a36,36,0,0,0,10.37-1.32q4.32-1.32,5.75-2.87a12.49,12.49,0,0,0,2.37-5.32c.45-1.83.17-3.22-.85-4.15q-2.1-2.16-2.13-2.82l21.43-86a22.47,22.47,0,0,0-1.37-15.72,20.06,20.06,0,0,0-11.53-10.16,54.53,54.53,0,0,0-19.08-3q-16.77,0-29.09,7.63T423.6,139q-3.19,12.81,8.77,12.81a34.85,34.85,0,0,0,11.45-1.93q5.63-1.93,7.76-4.67t3.74-9.13q2.83-11.4,11.22-11.4,6.13,0,4.25,7.53l-4.53,18.19q-8.34,3.57-20.72,7.9m-87.67,56.53q-2.24,9-8,9a6.19,6.19,0,0,1-5.42-2.82,6.57,6.57,0,0,1-1.3-5.37l19.73-79.14a10.46,10.46,0,0,1,3.84-5.56c2-1.63,3.75-2.45,5.13-2.44a5,5,0,0,1,4.46,2.87c1.1,1.91,1.16,4.82.19,8.71Zm9.87-97.78c.45-1.82.53-3,.23-3.4s-1.36-.65-3.18-.65H336.1a5.67,5.67,0,0,0-2.9.47c-.42.31-.84,1.32-1.27,3l-.72,2.92a7,7,0,0,0-.36,2.73,4.93,4.93,0,0,0,1.56,1.89c1.33,1.19,1.71,2.94,1.13,5.27l-30.39,122a4.41,4.41,0,0,1-2.35,3,8.18,8.18,0,0,0-4.55,5.37l-.86,3.49q-.48,1.88,3.29,1.88H335a5.24,5.24,0,0,0,2.65-.42,4.68,4.68,0,0,0,1.07-2.41l.85-3.39q.84-3.39-2.34-4.61a3.49,3.49,0,0,1-2.47-4.43l5.24-21q4.86,13,16.63,13,9.8,0,19.53-8.85a61.51,61.51,0,0,0,15.37-22.71,269,269,0,0,0,11-35.33q8.25-33.06,5.25-48.09t-17.49-15a25.68,25.68,0,0,0-11.58,2.63,78,78,0,0,0-12.15,7.92ZM254.05,111.7q-12.62,0-28.51,13.84l2.37-9.51q.75-3-2.54-3H195.83q-3.68,0-4.44,3l-1.2,4.85q-.72,2.85,1.05,3.7,2.94,1.41,2,5.18l-23.7,95.06c-.27,1.07-1.55,2.51-3.82,4.33s-3.31,3.09-3.55,4l-1.55,6.22c-.38,1.51.28,2.26,2,2.26H198a4,4,0,0,0,4.24-3.39l1.27-5.09a3.42,3.42,0,0,0-1-3.58c-1.58-1.5-2.15-3.11-1.73-4.8l22-88.37c.7-.31,1.23-.56,1.6-.75,3.84-1.82,6.46-2.73,7.84-2.73q5.09,0,3.53,6.21l-22,88.87q-2.16,8.67,1.75,13.75h27.41q3.21,0,4-3.39l1.41-5.65a3,3,0,0,0-1-2.92,4.94,4.94,0,0,1-1.61-4.9L267,139.81a9,9,0,0,1,3.38-5,10.46,10.46,0,0,1,6.58-2q6.3,0,4.69,6.5L259.49,228q-2.33,9.33,2.23,13.75h26.85c2.07,0,3.38-1.13,3.95-3.39l1.13-4.52a6.56,6.56,0,0,0-1-5.28,6,6,0,0,1-.88-4.8L314,134.53a25.64,25.64,0,0,0,.23-12.67q-1.47-5.79-5.59-8a19.81,19.81,0,0,0-9.31-2.16q-11.86,0-29,14.69-3.51-14.69-16.22-14.69M122.23,216.31q-3.56,14.22-11,14.22-6.69,0-3.15-14.22L127.61,138q3.57-14.33,10.92-14.32,6.78,0,3.87,11.68Zm-14.81-87.8Q91.89,145.27,83.74,178q-5.71,22.91-4,36.08t8.82,21.11q7.17,7.91,19.6,7.91,18,0,34.36-17.29t24.78-51q7.8-31.27-.11-47.15t-25.63-15.87q-18.56,0-34.09,16.77m-22.63-39Q82.11,92.2,81,92.2a4.49,4.49,0,0,1-2.5-1.32q-4.08-3.67-10.86-3.67Q56.4,87.21,45.79,96t-20,24.81Q16.36,136.85,9.67,163.7,2.5,192.1,4.4,210.32T13.31,236q7,7.44,18.68,7.44,12.06,0,22.38-8.91a42.35,42.35,0,0,0,13.68-22.37c.71-2.83.66-4.72-.13-5.7S65.41,205,62.77,205q-5.27,0-7.46,2c-1.46,1.33-2.71,3.67-3.74,7q-5.34,17.63-13.25,17.62-6.21,0-3.59-10.55l26.43-106q3.69-14.79,9.62-14.79,7.16,0,5.9,20.53-.51,8.12.55,10.27c.71,1.45,2.44,2.17,5.21,2.17q3.39,0,4.85-1.32a9.18,9.18,0,0,0,2.28-4.62c.15-.59.26-1.19.35-1.79l5.4-30.33q1-5.55.48-6.83a2.16,2.16,0,0,0-2.23-1.27h-4.9c-1,0-2.3.78-3.88,2.35" style="fill:#fe0"/><path d="M638.54,131.72a29.44,29.44,0,0,1,.68-5.37,6.27,6.27,0,0,1,4-4.71,4.68,4.68,0,0,0,2.7-2.16,34.22,34.22,0,0,0,1.88-6c.36-1.45.31-2.37-.16-2.78s-1.57-.61-3.33-.61H611.14a5.5,5.5,0,0,0-3.08.65c-.62.44-1.14,1.54-1.58,3.3l-1.31,5.28c-.44,1.76-.17,2.92.82,3.48a4.41,4.41,0,0,1,1.9,3.54,69,69,0,0,1,0,9.75l-4.2,97.69a88.62,88.62,0,0,1-.74,10.55q-1.25,5-6,5c-1.7,0-2.67-1.25-2.92-3.77q-.81-7.73-7.41-7.72a13.31,13.31,0,0,0-8.12,2.73,12.71,12.71,0,0,0-4.85,7.35q-1.65,6.29,1.85,10.18t11.79,3.9a37.63,37.63,0,0,0,25.94-9.75,44,44,0,0,0,9.06-11q3.56-6.17,13.11-27.84l36.4-82.9q2.85-6.51,5.93-8.29a17.62,17.62,0,0,0,2.57-1.79,10.71,10.71,0,0,0,1.15-3.3q1.2-4.8.49-5.93c-.47-.76-1.62-1.13-3.44-1.13H662.3q-2.64,0-3.39,3a36.82,36.82,0,0,0-1.23,6.41,3.7,3.7,0,0,0,1.26,2.82q2.71,2.64,2.11,5.08a26,26,0,0,1-1.58,3.68c-.16.37-.42.94-.79,1.69l-21.83,49.61ZM550.87,113a3.67,3.67,0,0,0,.12-2.36c-.22-.38-1-.56-2.31-.56H518q-2.64,0-3.37,2.92l-1.24,5c-.36,1.44,0,2.45,1,3a3.86,3.86,0,0,1,2,4.81l-23,92.13c-.8,3.21-1.53,5.28-2.21,6.22a12.23,12.23,0,0,1-3.67,3,5.8,5.8,0,0,0-2.66,3.87L484,234.5c-.47,1.89-.54,3.06-.22,3.54s1.3.7,2.93.7h33.45c3.07,0,4.88-1.07,5.41-3.2l1.2-4.81c.5-2,.19-3.39-.95-4.14a4.52,4.52,0,0,1-2-5.28l21.92-87.89c3.76-2.76,7-4.15,9.6-4.15q6,0,4.2,7.35L537.2,226.21q-1.92,7.72,2.53,12.53H566.2a4.67,4.67,0,0,0,3.18-.85q.92-.84,2-5.18c.91-3.64.76-5.9-.47-6.78-1.33-1.07-1.74-2.61-1.21-4.62l22.5-90.25q2.4-9.6-1.22-16t-13.46-6.36q-14.41,0-29.15,14.13ZM447.23,207.86q-3,12-10.25,12c-2.77,0-4.38-1.33-4.85-4s.56-9,3.08-19.14q5.15-20.59,8.68-26.48t15.35-10.58Zm-5.65-52.5q-19.54,7-27.72,15.2t-13.48,29.5q-5.31,21.27-1.08,30.64t16.17,9.36a28.72,28.72,0,0,0,11-2.35q5.67-2.36,16-10.84.79,7.83,5,10.51T459,240.06a36,36,0,0,0,10.37-1.32q4.32-1.32,5.75-2.87a12.49,12.49,0,0,0,2.37-5.32c.45-1.83.17-3.22-.85-4.15q-2.1-2.16-2.13-2.82l21.43-86a22.47,22.47,0,0,0-1.37-15.72,20.06,20.06,0,0,0-11.53-10.16,54.53,54.53,0,0,0-19.08-3q-16.77,0-29.09,7.63T419.6,136q-3.19,12.81,8.77,12.81a34.85,34.85,0,0,0,11.45-1.93q5.63-1.93,7.76-4.67t3.74-9.13q2.83-11.4,11.22-11.4,6.13,0,4.25,7.53l-4.53,18.19q-8.34,3.57-20.72,7.9m-87.67,56.53q-2.24,9-8,9a6.19,6.19,0,0,1-5.42-2.82,6.57,6.57,0,0,1-1.3-5.37l19.73-79.14a10.46,10.46,0,0,1,3.84-5.56c2-1.63,3.75-2.45,5.13-2.44a5,5,0,0,1,4.46,2.87c1.1,1.91,1.16,4.82.19,8.71Zm9.87-97.78c.45-1.82.53-3,.23-3.4s-1.36-.65-3.18-.65H332.1a5.67,5.67,0,0,0-2.9.47c-.42.31-.84,1.32-1.27,3l-.72,2.92a7,7,0,0,0-.36,2.73,4.93,4.93,0,0,0,1.56,1.89c1.33,1.19,1.71,2.94,1.13,5.27l-30.39,122a4.41,4.41,0,0,1-2.35,3,8.18,8.18,0,0,0-4.55,5.37l-.86,3.49q-.48,1.88,3.29,1.88H331a5.24,5.24,0,0,0,2.65-.42,4.68,4.68,0,0,0,1.07-2.41l.85-3.39q.84-3.39-2.34-4.61a3.49,3.49,0,0,1-2.47-4.43l5.24-21q4.86,13,16.63,13,9.8,0,19.53-8.85a61.51,61.51,0,0,0,15.37-22.71,269,269,0,0,0,11-35.33q8.25-33.06,5.25-48.09t-17.49-15a25.68,25.68,0,0,0-11.58,2.63,78,78,0,0,0-12.15,7.92ZM250.05,108.7q-12.62,0-28.51,13.84l2.37-9.51q.75-3-2.54-3H191.83q-3.68,0-4.44,3l-1.2,4.85q-.72,2.85,1.05,3.7,2.94,1.41,2,5.18l-23.7,95.06c-.27,1.07-1.55,2.51-3.82,4.33s-3.31,3.09-3.55,4l-1.55,6.22c-.38,1.51.28,2.26,2,2.26H194a4,4,0,0,0,4.24-3.39l1.27-5.09a3.42,3.42,0,0,0-1-3.58c-1.58-1.5-2.15-3.11-1.73-4.8l22-88.37c.7-.31,1.23-.56,1.6-.75,3.84-1.82,6.46-2.73,7.84-2.73q5.09,0,3.53,6.21l-22,88.87q-2.16,8.67,1.75,13.75h27.41q3.21,0,4-3.39l1.41-5.65a3,3,0,0,0-1-2.92,4.94,4.94,0,0,1-1.61-4.9L263,136.81a9,9,0,0,1,3.38-5,10.46,10.46,0,0,1,6.58-2q6.3,0,4.69,6.5L255.49,225q-2.33,9.33,2.23,13.75h26.85c2.07,0,3.38-1.13,3.95-3.39l1.13-4.52a6.56,6.56,0,0,0-1-5.28,6,6,0,0,1-.88-4.8L310,131.53a25.64,25.64,0,0,0,.23-12.67q-1.47-5.79-5.59-8a19.81,19.81,0,0,0-9.31-2.16q-11.86,0-29,14.69-3.51-14.69-16.22-14.69M118.23,213.31q-3.56,14.22-11,14.22-6.69,0-3.15-14.22L123.61,135q3.57-14.32,10.92-14.32,6.78,0,3.87,11.68Zm-14.81-87.8Q87.89,142.27,79.74,175q-5.71,22.91-4,36.08t8.82,21.11q7.17,7.91,19.6,7.91,18,0,34.36-17.29t24.78-51q7.8-31.27-.11-47.15t-25.63-15.87q-18.56,0-34.09,16.77m-22.63-39Q78.11,89.2,77,89.2a4.49,4.49,0,0,1-2.5-1.32q-4.08-3.67-10.86-3.67Q52.4,84.21,41.79,93t-20,24.81Q12.36,133.85,5.67,160.7-1.5,189.1.4,207.32T9.31,233q7,7.44,18.68,7.44,12.06,0,22.38-8.91a42.35,42.35,0,0,0,13.68-22.37c.71-2.83.66-4.72-.13-5.7S61.41,202,58.77,202q-5.27,0-7.46,2c-1.46,1.33-2.71,3.67-3.74,7q-5.34,17.63-13.25,17.62-6.21,0-3.59-10.55l26.43-106q3.69-14.79,9.62-14.79,7.16,0,5.9,20.53-.51,8.11.55,10.27c.71,1.45,2.44,2.17,5.21,2.17q3.39,0,4.85-1.32a9.18,9.18,0,0,0,2.28-4.62c.15-.59.26-1.19.35-1.79l5.4-30.33q1-5.55.48-6.83a2.16,2.16,0,0,0-2.23-1.27h-4.9c-1,0-2.3.78-3.88,2.35" style="fill:#fa125e"/></svg>